<svg xmlns="http://www.w3.org/2000/svg" viewBox="0 0 29 28.297">
  <defs>
    <style>
      .cls-1 {
        fill: #fff;
      }
    </style>
  </defs>
  <path id="github-circle" class="cls-1" d="M16.5,2a14.51,14.51,0,0,0-4.582,28.275c.725.116.957-.333.957-.725V27.1C8.859,27.97,8,25.156,8,25.156a3.9,3.9,0,0,0-1.609-2.131c-1.32-.9.1-.87.1-.87a3.049,3.049,0,0,1,2.219,1.493,3.114,3.114,0,0,0,4.22,1.2,3.131,3.131,0,0,1,.913-1.943c-3.219-.363-6.6-1.609-6.6-7.134a5.616,5.616,0,0,1,1.494-3.93,5.186,5.186,0,0,1,.145-3.828s1.218-.392,3.988,1.479a13.97,13.97,0,0,1,7.25,0c2.77-1.871,3.987-1.479,3.987-1.479a5.186,5.186,0,0,1,.145,3.828,5.616,5.616,0,0,1,1.493,3.93c0,5.539-3.393,6.757-6.627,7.119a3.459,3.459,0,0,1,1,2.682V29.55c0,.392.232.856.972.725A14.513,14.513,0,0,0,16.5,2Z" transform="translate(-2 -2)"/>
</svg>
