<svg xmlns="http://www.w3.org/2000/svg" viewBox="0 0 28.616 23.254">
  <defs>
    <style>
      .cls-1 {
        fill: #fff;
      }
    </style>
  </defs>
  <path id="twitter" class="cls-1" d="M30.156,6.736a11.719,11.719,0,0,1-3.365.944,5.88,5.88,0,0,0,2.572-3.256A11.82,11.82,0,0,1,25.642,5.86,5.779,5.779,0,0,0,21.32,4a5.861,5.861,0,0,0-5.841,5.868,6.1,6.1,0,0,0,.15,1.341A16.68,16.68,0,0,1,3.537,5.081a5.846,5.846,0,0,0,1.819,7.811,5.8,5.8,0,0,1-2.667-.684v.041a5.873,5.873,0,0,0,4.706,5.759,5.754,5.754,0,0,1-2.64.1,5.854,5.854,0,0,0,5.472,4.076A11.656,11.656,0,0,1,2.935,24.7a11.931,11.931,0,0,1-1.4-.082,16.612,16.612,0,0,0,9,2.64c10.779,0,16.7-8.946,16.7-16.7,0-.26,0-.506-.014-.766A11.725,11.725,0,0,0,30.156,6.736Z" transform="translate(-1.54 -4)"/>
</svg>
